<?xml version="1.0" standalone="no"?>
<!DOCTYPE svg PUBLIC "-//W3C//DTD SVG 20010904//EN"
 "http://www.w3.org/TR/2001/REC-SVG-20010904/DTD/svg10.dtd">
<svg version="1.0" xmlns="http://www.w3.org/2000/svg"
 width="1024.000000pt" height="1024.000000pt" viewBox="0 0 1024.000000 1024.000000"
 preserveAspectRatio="xMidYMid meet">

<g transform="translate(0.000000,1024.000000) scale(0.100000,-0.100000)"
fill="#000000" stroke="none">
<path d="M3411 8758 c-18 -5 -57 -33 -86 -62 -151 -151 -282 -597 -331 -1125
l-17 -183 -53 -96 c-113 -204 -203 -478 -227 -690 l-11 -104 -36 6 c-155 24
-293 16 -274 -16 4 -6 3 -8 -4 -4 -17 10 -42 -35 -42 -77 0 -44 26 -91 47 -83
8 3 11 2 8 -3 -10 -17 15 -23 158 -37 78 -7 143 -14 143 -14 1 0 7 -37 13 -82
7 -46 23 -130 37 -187 13 -57 23 -105 22 -106 -2 -2 -41 -10 -88 -19 -144 -28
-186 -43 -214 -77 -32 -37 -34 -81 -6 -127 37 -60 73 -63 268 -26 73 14 135
24 137 22 1 -2 18 -28 36 -58 68 -113 225 -300 251 -300 6 0 4 8 -3 18 -13 15
-12 16 3 3 10 -7 15 -17 12 -22 -3 -5 24 -30 60 -56 l65 -47 -54 -29 c-69 -37
-137 -95 -129 -109 4 -6 2 -8 -3 -5 -13 8 -35 -16 -31 -34 2 -7 -3 -13 -11
-14 -8 0 -29 -27 -47 -60 -66 -120 -64 -92 -67 -1048 -1 -477 -3 -867 -4 -867
-15 0 -116 54 -178 95 -207 138 -351 352 -401 595 -20 101 -15 312 11 405 9
33 54 139 100 235 46 96 91 204 99 240 28 119 16 231 -35 332 -26 51 -79 109
-92 101 -5 -3 -7 -2 -4 4 9 15 -39 57 -54 48 -8 -5 -10 -4 -5 4 11 18 -105 68
-177 75 -78 9 -186 -8 -254 -39 -67 -30 -145 -84 -138 -94 2 -5 -3 -15 -13
-22 -15 -13 -16 -12 -3 4 7 9 9 17 3 17 -15 0 -136 -132 -180 -197 -88 -130
-152 -288 -193 -483 -31 -143 -34 -444 -5 -595 33 -175 93 -350 181 -525 75
-150 207 -346 225 -335 5 3 12 0 16 -6 4 -8 3 -9 -4 -5 -28 17 -8 -14 35 -54
26 -25 39 -34 28 -20 l-20 25 22 -18 c12 -11 19 -25 17 -32 -6 -14 82 -95 100
-92 6 1 10 -4 9 -10 -4 -19 156 -142 274 -213 195 -117 409 -193 662 -236 122
-21 146 -28 162 -48 31 -40 151 -132 219 -169 143 -78 -7 -72 1785 -72 l1600
0 74 24 c231 76 410 294 476 581 20 88 34 321 35 572 l0 177 48 6 c77 10 170
54 157 75 -3 4 3 14 13 21 15 13 16 12 3 -3 -7 -10 -9 -18 -4 -18 15 0 72 84
88 131 22 63 21 491 -1 545 -21 51 -63 106 -75 98 -5 -3 -8 0 -7 7 5 21 -92
67 -164 79 l-68 12 0 248 c0 276 -6 321 -56 427 -33 68 -133 193 -156 193 -6
0 -4 -8 3 -17 13 -16 12 -17 -3 -4 -10 7 -16 17 -13 21 6 10 -47 43 -97 61
-44 15 -46 19 -18 37 12 7 18 18 14 24 -4 7 -3 8 5 4 14 -9 84 41 76 54 -3 5
0 12 6 16 8 4 9 3 5 -4 -17 -28 13 -8 57 36 45 46 61 72 34 56 -8 -5 -8 -3 2
9 7 9 17 15 21 12 12 -8 43 33 34 46 -4 8 -3 10 4 5 7 -4 35 28 73 86 33 51
62 94 63 95 1 1 62 -9 136 -22 73 -14 153 -25 177 -25 53 0 107 25 99 46 -3 8
0 13 7 11 8 -1 12 15 12 53 0 38 -4 54 -12 53 -7 -2 -10 3 -7 11 9 23 -42 43
-187 72 -74 15 -135 28 -136 28 -1 1 7 37 18 81 10 44 25 124 34 179 8 54 17
101 19 104 3 2 70 11 148 18 169 16 177 18 211 44 50 40 41 151 -15 181 -25
14 -137 14 -258 0 -41 -4 -78 -7 -81 -5 -3 2 -9 36 -13 76 -22 240 -111 505
-250 747 -42 74 -44 79 -50 191 -19 299 -72 644 -132 853 -38 133 -98 272
-114 262 -5 -3 -7 0 -4 8 3 8 -3 20 -12 28 -16 12 -17 12 -9 -1 4 -8 -6 -2
-23 14 -17 16 -30 34 -29 40 1 6 -15 19 -37 30 -49 24 -126 23 -193 -2 -84
-32 -285 -179 -280 -205 1 -7 -5 -11 -14 -9 -30 5 -279 -264 -469 -505 l-25
-32 -100 24 c-216 54 -358 69 -650 69 -297 0 -435 -15 -660 -72 l-111 -28 -43
53 c-24 29 -48 50 -54 46 -6 -4 -7 -1 -3 6 9 14 -22 53 -35 46 -4 -3 -11 0
-15 6 -4 8 -3 9 4 5 25 -15 10 10 -45 73 -101 116 -257 281 -266 281 -4 0 -5
-6 -1 -12 5 -9 3 -9 -9 1 -9 7 -15 17 -12 21 7 11 -133 135 -151 134 -7 -1
-11 2 -8 7 8 13 -112 87 -170 104 -56 17 -76 17 -125 3z m3360 -322 c69 -157
169 -722 169 -959 0 -88 22 -164 71 -244 137 -223 225 -469 245 -691 l7 -70
-44 -6 c-188 -24 -276 -39 -300 -52 -38 -19 -59 -52 -59 -91 0 -73 44 -116
119 -115 50 1 222 19 259 28 21 4 22 2 16 -38 -8 -57 -40 -196 -53 -229 l-10
-27 -113 24 c-158 33 -199 32 -231 -6 -34 -40 -41 -80 -23 -123 20 -50 48 -64
169 -88 l106 -22 -32 -45 c-44 -64 -161 -180 -229 -230 -128 -94 -284 -161
-435 -187 -132 -23 -2498 -22 -2611 1 -190 39 -363 129 -505 264 -81 76 -174
186 -165 195 1 2 48 13 103 24 135 29 175 61 175 140 0 24 -9 42 -34 67 -42
42 -67 43 -229 9 -64 -14 -119 -25 -122 -25 -12 0 -65 219 -65 272 0 29 2 30
33 25 17 -4 86 -12 152 -18 108 -11 123 -10 152 5 48 24 67 58 60 107 -11 83
-47 100 -254 125 l-153 18 0 34 c0 72 34 242 70 352 36 109 100 247 191 407
40 72 41 74 50 215 18 279 67 541 145 776 52 156 78 212 100 212 24 0 155
-114 290 -251 108 -112 239 -263 364 -422 48 -61 106 -97 156 -97 16 0 57 7
89 16 307 81 391 94 645 101 301 8 467 -13 779 -97 106 -28 143 -21 206 44 28
29 85 97 127 152 106 139 251 298 364 398 91 81 206 166 226 166 5 0 18 -20
29 -44z m38 -3456 c78 -13 125 -36 173 -87 67 -69 70 -87 70 -371 l-1 -253
-218 0 c-248 1 -310 -6 -400 -48 -170 -80 -275 -296 -245 -501 26 -177 149
-322 325 -383 18 -6 140 -13 287 -17 l255 -5 0 -270 c0 -263 -1 -271 -23 -317
-34 -68 -101 -124 -180 -148 -63 -20 -94 -20 -1752 -20 -1541 0 -1692 1 -1739
17 -62 20 -124 71 -154 127 l-22 41 0 1010 0 1010 23 47 c42 84 128 148 226
168 63 12 3298 12 3375 0z m-4606 -82 c53 -16 103 -67 118 -120 17 -66 -4
-142 -87 -302 -112 -220 -144 -345 -144 -569 0 -504 287 -916 766 -1102 l71
-27 7 -92 c4 -50 11 -109 16 -131 5 -22 7 -41 6 -43 -6 -6 -184 37 -262 63
-488 164 -861 588 -1004 1145 -57 219 -52 517 11 710 59 178 171 349 277 422
78 54 150 68 225 46z m5154 -911 c28 -27 28 -28 31 -189 2 -88 1 -171 -2 -184
-14 -55 -8 -54 -399 -54 -234 0 -376 4 -402 11 -53 15 -129 91 -144 144 -33
120 15 241 113 286 38 18 68 19 408 16 l368 -2 27 -28z m-4732 -767 c10 -11
16 -20 13 -20 -3 0 -13 9 -23 20 -10 11 -16 20 -13 20 3 0 13 -9 23 -20z
m4271 -909 c-26 -26 -68 -58 -93 -71 -104 -52 -37 -50 -1668 -50 -1637 0
-1583 -1 -1688 51 -43 22 -150 99 -144 105 1 2 25 -3 52 -11 41 -13 285 -15
1750 -15 1526 0 1707 2 1756 16 30 9 58 20 63 25 5 5 12 6 15 4 3 -3 -17 -27
-43 -54z"/>
<path d="M5936 6965 c-137 -39 -261 -186 -273 -324 -7 -71 12 -112 62 -135 70
-33 144 9 170 96 21 72 40 97 92 120 92 40 186 -5 218 -105 32 -97 102 -139
171 -102 144 78 21 367 -188 441 -61 22 -192 27 -252 9z"/>
<path d="M4070 6956 c-80 -18 -129 -44 -186 -101 -60 -60 -87 -107 -104 -186
-11 -51 -11 -61 6 -95 25 -50 73 -78 119 -70 43 8 91 56 100 98 19 86 68 128
149 128 81 0 131 -41 157 -129 27 -90 101 -130 174 -95 73 34 82 121 26 239
-56 118 -150 191 -275 214 -72 13 -95 13 -166 -3z"/>
<path d="M4914 6430 c-83 -33 -84 -161 -3 -254 21 -24 52 -49 69 -56 28 -12
30 -15 24 -49 -16 -91 -76 -167 -153 -190 -81 -24 -184 -8 -235 37 -10 9 -34
40 -52 69 -42 64 -83 82 -137 59 -39 -16 -67 -59 -67 -101 0 -40 47 -123 101
-177 30 -30 78 -63 127 -86 72 -35 83 -37 172 -37 127 1 189 25 278 109 l65
62 45 -48 c29 -31 73 -62 121 -86 73 -36 78 -37 186 -37 106 0 113 1 180 34
87 43 167 121 201 196 31 68 27 109 -15 149 -54 52 -132 33 -170 -42 -39 -76
-103 -112 -201 -112 -108 0 -184 51 -220 147 -28 76 -26 95 11 112 87 39 154
161 129 237 -9 27 -22 40 -54 55 -35 16 -65 19 -211 18 -93 0 -180 -4 -191 -9z"/>
<path d="M4443 4604 c-18 -18 -24 -33 -21 -52 2 -15 99 -170 216 -344 117
-175 212 -320 212 -323 0 -3 -74 -5 -164 -5 -163 0 -163 0 -190 -26 -22 -23
-26 -35 -26 -86 0 -52 3 -63 29 -89 l29 -29 226 0 226 0 0 -80 0 -80 -230 0
-231 0 -24 -25 c-21 -20 -25 -34 -25 -85 0 -55 3 -65 29 -91 l29 -29 226 0
225 0 3 -180 3 -180 28 -27 c25 -25 34 -28 98 -28 65 0 73 2 95 28 23 27 24
32 24 208 l0 179 220 0 c136 0 228 4 243 11 60 27 77 133 31 188 l-26 31 -234
0 -234 0 0 80 0 80 220 0 c244 0 267 5 290 60 20 47 8 120 -25 147 -25 22 -34
23 -191 23 l-164 0 14 23 c7 12 102 162 210 333 108 171 196 321 196 333 0 11
-9 30 -20 41 -17 17 -33 20 -124 20 -85 0 -107 -3 -124 -17 -11 -10 -91 -139
-177 -288 -87 -148 -173 -296 -192 -328 l-35 -58 -142 233 c-233 381 -255 416
-283 438 -22 17 -40 20 -120 20 -87 0 -96 -2 -120 -26z"/>
<path d="M6905 8690 c10 -11 20 -18 23 -15 7 6 -18 35 -31 35 -5 0 -2 -9 8
-20z"/>
</g>
</svg>
